<svg width="100" height="34" viewBox="0 0 100 34" fill="none" xmlns="http://www.w3.org/2000/svg">
<path d="M7.69266 28.4169C6.07021 28.4169 4.68087 28.1254 3.52464 27.5423C2.38706 26.9592 1.51056 26.121 0.895146 25.0278C0.298382 23.9163 0 22.577 0 21.01V19.9167H5.14709V21.174C5.14709 21.9028 5.36155 22.5041 5.79048 22.9779C6.23805 23.4334 6.86279 23.6612 7.66469 23.6612C8.46659 23.6612 9.082 23.4334 9.51093 22.9779C9.9585 22.5041 10.1823 21.9028 10.1823 21.174V11.7991H15.3853V21.01C15.3853 22.577 15.0776 23.9163 14.4622 25.0278C13.8654 26.121 12.9983 26.9592 11.8607 27.5423C10.7231 28.1254 9.33376 28.4169 7.69266 28.4169ZM2.29381 12.3457V7.91797H15.3853V12.3457H2.29381Z" fill="#161615"/>
<path d="M26.6461 28.4169C25.2847 28.4169 24.0726 28.2165 23.0096 27.8156C21.9466 27.4147 21.0421 26.859 20.2962 26.1484C19.5689 25.4377 19.0094 24.6178 18.6178 23.6885C18.2448 22.7592 18.0583 21.7661 18.0583 20.7093V20.0533C18.0583 18.9601 18.2541 17.9397 18.6457 16.9922C19.056 16.0447 19.6341 15.2156 20.3801 14.505C21.126 13.7943 22.0305 13.2386 23.0935 12.8377C24.1565 12.4368 25.3407 12.2364 26.6461 12.2364C27.9702 12.2364 29.1544 12.4368 30.1987 12.8377C31.2617 13.2386 32.1662 13.7943 32.9121 14.505C33.6581 15.2156 34.2269 16.0447 34.6185 16.9922C35.0288 17.9397 35.2339 18.9601 35.2339 20.0533V20.7093C35.2339 21.7661 35.0381 22.7592 34.6465 23.6885C34.2735 24.6178 33.714 25.4377 32.9681 26.1484C32.2408 26.859 31.3456 27.4147 30.2826 27.8156C29.2197 28.2165 28.0075 28.4169 26.6461 28.4169ZM26.6461 24.2625C27.4294 24.2625 28.0727 24.0985 28.5763 23.7705C29.0984 23.4425 29.4901 22.987 29.7511 22.4039C30.0122 21.8026 30.1428 21.1284 30.1428 20.3813C30.1428 19.5978 30.0029 18.9145 29.7232 18.3314C29.4621 17.7301 29.0705 17.2564 28.5483 16.9102C28.0261 16.564 27.3921 16.3909 26.6461 16.3909C25.9002 16.3909 25.2661 16.564 24.7439 16.9102C24.2218 17.2564 23.8208 17.7301 23.5411 18.3314C23.28 18.9145 23.1494 19.5978 23.1494 20.3813C23.1494 21.1284 23.28 21.8026 23.5411 22.4039C23.8022 22.987 24.1938 23.4425 24.716 23.7705C25.2381 24.0985 25.8815 24.2625 26.6461 24.2625Z" fill="#161615"/>
<path d="M47.9797 28.3622C46.7116 28.3622 45.602 28.1071 44.6509 27.597C43.7184 27.0868 42.9818 26.3397 42.441 25.3557C41.9188 24.3718 41.6391 23.1692 41.6018 21.7479H42.0493V27.8703H38.0212V7.91797H43.1123V18.1948L41.9934 19.288C42.0493 17.8121 42.3384 16.5549 42.8606 15.5162C43.3827 14.4776 44.1007 13.6941 45.0145 13.1657C45.947 12.6191 47.0193 12.3457 48.2315 12.3457C49.2758 12.3457 50.2176 12.5371 51.0568 12.9197C51.896 13.2841 52.6046 13.8126 53.1827 14.505C53.7795 15.1791 54.2364 15.9809 54.5534 16.9102C54.8705 17.8395 55.029 18.8598 55.029 19.9713V20.6273C55.029 21.7388 54.8705 22.7683 54.5534 23.7158C54.2364 24.6451 53.7702 25.4651 53.1548 26.1757C52.5393 26.8681 51.7934 27.4056 50.9169 27.7883C50.059 28.1709 49.08 28.3622 47.9797 28.3622ZM46.5251 24.2625C47.1964 24.2625 47.7839 24.0985 48.2874 23.7705C48.8096 23.4243 49.2105 22.9505 49.4903 22.3492C49.7886 21.7479 49.9378 21.0646 49.9378 20.2993C49.9378 19.5158 49.7886 18.8416 49.4903 18.2768C49.2105 17.6937 48.8189 17.2473 48.3154 16.9375C47.8119 16.6095 47.2151 16.4455 46.5251 16.4455C45.9097 16.4455 45.3316 16.5822 44.7907 16.8555C44.2686 17.1288 43.8396 17.5297 43.504 18.0581C43.1683 18.5865 43.0004 19.2243 43.0004 19.9713V20.9006C43.0004 21.6113 43.1776 22.2217 43.5319 22.7319C43.8863 23.2238 44.3338 23.6065 44.8747 23.8798C45.4155 24.1349 45.9656 24.2625 46.5251 24.2625Z" fill="#161615"/>
<path d="M56.1481 33.5006V29.3462H56.9314C57.6027 29.3462 58.1156 29.1731 58.4699 28.8269C58.8242 28.4807 59.0014 27.9796 59.0014 27.3236V12.783H63.9247V27.269C63.9247 28.7813 63.6729 29.9931 63.1694 30.9041C62.6659 31.8152 61.892 32.4711 60.8476 32.872C59.8033 33.2911 58.4606 33.5006 56.8195 33.5006H56.1481ZM56.9314 16.3909V12.783H63.9247V16.3909H56.9314Z" fill="#161615"/>
<path d="M74.7421 28.4169C73.4366 28.4169 72.2804 28.1983 71.2734 27.7609C70.2663 27.3236 69.4178 26.7314 68.7278 25.9844C68.0378 25.2373 67.5063 24.3991 67.1333 23.4698C66.779 22.5405 66.6018 21.5839 66.6018 20.6V20.0533C66.6018 19.0329 66.779 18.0581 67.1333 17.1288C67.5063 16.1813 68.0285 15.3431 68.6998 14.6143C69.3898 13.8854 70.229 13.3115 71.2174 12.8924C72.2058 12.4551 73.3248 12.2364 74.5742 12.2364C76.234 12.2364 77.642 12.6008 78.7982 13.3297C79.9544 14.0585 80.8402 15.0243 81.4557 16.2269C82.0711 17.4113 82.3788 18.705 82.3788 20.108V21.6933H68.7278V19.0147H79.4416L77.6793 20.2173C77.6793 19.3609 77.558 18.6412 77.3156 18.0581C77.0918 17.4568 76.7468 17.0013 76.2806 16.6915C75.833 16.3818 75.2642 16.2269 74.5742 16.2269C73.9029 16.2269 73.3154 16.3818 72.8119 16.6915C72.327 16.9831 71.9541 17.4386 71.693 18.0581C71.4319 18.6594 71.3014 19.4247 71.3014 20.354C71.3014 21.1922 71.4226 21.921 71.665 22.5405C71.9074 23.1418 72.2804 23.6065 72.7839 23.9345C73.2875 24.2625 73.9402 24.4264 74.7421 24.4264C75.4507 24.4264 76.0288 24.308 76.4764 24.0711C76.9426 23.8343 77.269 23.5154 77.4555 23.1145H82.099C81.8753 24.1349 81.4277 25.046 80.7563 25.8477C80.1036 26.6494 79.2644 27.2781 78.2387 27.7336C77.2317 28.1891 76.0661 28.4169 74.7421 28.4169Z" fill="#161615"/>
<path d="M85.0623 27.8703V12.783H89.0904V19.2607H88.8666C88.8666 17.6937 89.0718 16.4 89.482 15.3796C89.8923 14.341 90.4984 13.5666 91.3003 13.0564C92.1208 12.5462 93.1092 12.2911 94.2655 12.2911H94.4893C96.2422 12.2911 97.5943 12.865 98.5454 14.013C99.5151 15.1427 100 16.8828 100 19.2334V27.8703H94.9089V19.0967C94.9089 18.4043 94.6944 17.8395 94.2655 17.4021C93.8552 16.9466 93.2864 16.7188 92.5591 16.7188C91.8318 16.7188 91.2444 16.9466 90.7968 17.4021C90.3679 17.8395 90.1534 18.4225 90.1534 19.1514V27.8703H85.0623Z" fill="#161615"/>
<path d="M58.3637 7.02182C59.042 7.76724 60.0736 8.13994 61.4584 8.13994C62.8716 8.13994 63.9031 7.76724 64.5532 7.02182C65.2032 6.24659 65.5282 5.26264 65.5282 4.06997C65.5282 2.87731 65.2032 1.90827 64.5532 1.16285C63.9031 0.387617 62.8716 0 61.4584 0C60.0736 0 59.042 0.387617 58.3637 1.16285C57.7137 1.90827 57.3887 2.87731 57.3887 4.06997C57.3887 5.26264 57.7137 6.24659 58.3637 7.02182Z" fill="url(#paint0_linear_1076_336)"/>
<defs>
<linearGradient id="paint0_linear_1076_336" x1="57.3887" y1="4.06997" x2="65.5282" y2="4.06997" gradientUnits="userSpaceOnUse">
<stop stop-color="#FF00CC"/>
<stop offset="1" stop-color="#850CFF"/>
</linearGradient>
</defs>
</svg>
