<svg xmlns="http://www.w3.org/2000/svg" viewBox="0 0 100 35" fill="none" role="img" aria-label="Jobjen">
  <path d="M7.69266 29.1669C6.07021 29.1669 4.68087 28.8754 3.52464 28.2923C2.38706 27.7092 1.51056 26.871 0.895146 25.7778C0.298382 24.6663 0 23.327 0 21.76V20.6667H5.14709V21.924C5.14709 22.6528 5.36155 23.2541 5.79048 23.7279C6.23805 24.1834 6.86279 24.4112 7.66469 24.4112C8.46659 24.4112 9.082 24.1834 9.51093 23.7279C9.9585 23.2541 10.1823 22.6528 10.1823 21.924V12.5491H15.3853V21.76C15.3853 23.327 15.0776 24.6663 14.4622 25.7778C13.8654 26.871 12.9983 27.7092 11.8607 28.2923C10.7231 28.8754 9.33376 29.1669 7.69266 29.1669ZM2.29381 13.0957V8.66797H15.3853V13.0957H2.29381Z" fill="#ffffff" stroke="#ffffff" stroke-width="0.5"/>
  <path d="M26.6461 29.1669C25.2847 29.1669 24.0726 28.9665 23.0096 28.5656C21.9466 28.1647 21.0421 27.609 20.2962 26.8984C19.5689 26.1877 19.0094 25.3678 18.6178 24.4385C18.2448 23.5092 18.0583 22.5161 18.0583 21.4593V20.8033C18.0583 19.7101 18.2541 18.6897 18.6457 17.7422C19.056 16.7947 19.6341 15.9656 20.3801 15.255C21.126 14.5443 22.0305 13.9886 23.0935 13.5877C24.1565 13.1868 25.3407 12.9864 26.6461 12.9864C27.9702 12.9864 29.1544 13.1868 30.1987 13.5877C31.2617 13.9886 32.1662 14.5443 32.9121 15.255C33.6581 15.9656 34.2269 16.7947 34.6185 17.7422C35.0288 18.6897 35.2339 19.7101 35.2339 20.8033V21.4593C35.2339 22.5161 35.0381 23.5092 34.6465 24.4385C34.2735 25.3678 33.714 26.1877 32.9681 26.8984C32.2408 27.609 31.3456 28.1647 30.2826 28.5656C29.2197 28.9665 28.0075 29.1669 26.6461 29.1669ZM26.6461 25.0125C27.4294 25.0125 28.0727 24.8485 28.5763 24.5205C29.0984 24.1925 29.4901 23.737 29.7511 23.1539C30.0122 22.5526 30.1428 21.8784 30.1428 21.1313C30.1428 20.3478 30.0029 19.6645 29.7232 19.0814C29.4621 18.4801 29.0705 18.0064 28.5483 17.6602C28.0261 17.314 27.3921 17.1409 26.6461 17.1409C25.9002 17.1409 25.2661 17.314 24.7439 17.6602C24.2218 18.0064 23.8208 18.4801 23.5411 19.0814C23.28 19.6645 23.1494 20.3478 23.1494 21.1313C23.1494 21.8784 23.28 22.5526 23.5411 23.1539C23.8022 23.737 24.1938 24.1925 24.716 24.5205C25.2381 24.8485 25.8815 25.0125 26.6461 25.0125Z" fill="#ffffff" stroke="#ffffff" stroke-width="0.5"/>
  <path d="M47.9797 29.1122C46.7116 29.1122 45.602 28.8571 44.6509 28.347C43.7184 27.8368 42.9818 27.0897 42.441 26.1057C41.9188 25.1218 41.6391 23.9192 41.6018 22.4979H42.0493V28.6203H38.0212V8.66797H43.1123V18.9448L41.9934 20.038C42.0493 18.5621 42.3384 17.3049 42.8606 16.2662C43.3827 15.2276 44.1007 14.4441 45.0145 13.9157C45.947 13.3691 47.0193 13.0957 48.2315 13.0957C49.2758 13.0957 50.2176 13.2871 51.0568 13.6697C51.896 14.0341 52.6046 14.5626 53.1827 15.255C53.7795 15.9291 54.2364 16.7309 54.5534 17.6602C54.8705 18.5895 55.029 19.6098 55.029 20.7213V21.3773C55.029 22.4888 54.8705 23.5183 54.5534 24.4658C54.2364 25.3951 53.7702 26.2151 53.1548 26.9257C52.5393 27.6181 51.7934 28.1556 50.9169 28.5383C50.059 28.9209 49.08 29.1122 47.9797 29.1122ZM46.5251 25.0125C47.1964 25.0125 47.7839 24.8485 48.2874 24.5205C48.8096 24.1743 49.2105 23.7005 49.4903 23.0992C49.7886 22.4979 49.9378 21.8146 49.9378 21.0493C49.9378 20.2658 49.7886 19.5916 49.4903 19.0268C49.2105 18.4437 48.8189 17.9973 48.3154 17.6875C47.8119 17.3595 47.2151 17.1955 46.5251 17.1955C45.9097 17.1955 45.3316 17.3322 44.7907 17.6055C44.2686 17.8788 43.8396 18.2797 43.504 18.8081C43.1683 19.3365 43.0004 19.9743 43.0004 20.7213V21.6506C43.0004 22.3613 43.1776 22.9717 43.5319 23.4819C43.8863 23.9738 44.3338 24.3565 44.8747 24.6298C45.4155 24.8849 45.9656 25.0125 46.5251 25.0125Z" fill="#ffffff" stroke="#ffffff" stroke-width="0.5"/>
  <path d="M56.1481 34.2506V30.0962H56.9314C57.6027 30.0962 58.1156 29.9231 58.4699 29.5769C58.8242 29.2307 59.0014 28.7296 59.0014 28.0736V13.533H63.9247V28.019C63.9247 29.5313 63.6729 30.7431 63.1694 31.6541C62.6659 32.5652 61.892 33.2211 60.8476 33.622C59.8033 34.0411 58.4606 34.2506 56.8195 34.2506H56.1481ZM56.9314 17.1409V13.533H63.9247V17.1409H56.9314Z" fill="#ffffff" stroke="#ffffff" stroke-width="0.5"/>
  <path d="M74.7421 29.1669C73.4366 29.1669 72.2804 28.9483 71.2734 28.5109C70.2663 28.0736 69.4178 27.4814 68.7278 26.7344C68.0378 25.9873 67.5063 25.1491 67.1333 24.2198C66.779 23.2905 66.6018 22.3339 66.6018 21.35V20.8033C66.6018 19.7829 66.779 18.8081 67.1333 17.8788C67.5063 16.9313 68.0285 16.0931 68.6998 15.3643C69.3898 14.6354 70.229 14.0615 71.2174 13.6424C72.2058 13.2051 73.3248 12.9864 74.5742 12.9864C76.234 12.9864 77.642 13.3508 78.7982 14.0797C79.9544 14.8085 80.8402 15.7743 81.4557 16.9769C82.0711 18.1613 82.3788 19.455 82.3788 20.858V22.4433H68.7278V19.7647H79.4416L77.6793 20.9673C77.6793 20.1109 77.558 19.3912 77.3156 18.8081C77.0918 18.2068 76.7468 17.7513 76.2806 17.4415C75.833 17.1318 75.2642 16.9769 74.5742 16.9769C73.9029 16.9769 73.3154 17.1318 72.8119 17.4415C72.327 17.7331 71.9541 18.1886 71.693 18.8081C71.4319 19.4094 71.3014 20.1747 71.3014 21.104C71.3014 21.9422 71.4226 22.671 71.665 23.2905C71.9074 23.8918 72.2804 24.3565 72.7839 24.6845C73.2875 25.0125 73.9402 25.1764 74.7421 25.1764C75.4507 25.1764 76.0288 25.058 76.4764 24.8211C76.9426 24.5843 77.269 24.2654 77.4555 23.8645H82.099C81.8753 24.8849 81.4277 25.796 80.7563 26.5977C80.1036 27.3994 79.2644 28.0281 78.2387 28.4836C77.2317 28.9391 76.0661 29.1669 74.7421 29.1669Z" fill="#ffffff" stroke="#ffffff" stroke-width="0.5"/>
  <path d="M85.0623 28.6203V13.533H89.0904V20.0107H88.8666C88.8666 18.4437 89.0718 17.15 89.482 16.1296C89.8923 15.091 90.4984 14.3166 91.3003 13.8064C92.1208 13.2962 93.1092 13.0411 94.2655 13.0411H94.4893C96.2422 13.0411 97.5943 13.615 98.5454 14.763C99.5151 15.8927 100 17.6328 100 19.9834V28.6203H94.9089V19.8467C94.9089 19.1543 94.6944 18.5895 94.2655 18.1521C93.8552 17.6966 93.2864 17.4688 92.5591 17.4688C91.8318 17.4688 91.2444 17.6966 90.7968 18.1521C90.3679 18.5895 90.1534 19.1725 90.1534 19.9014V28.6203H85.0623Z" fill="#ffffff" stroke="#ffffff" stroke-width="0.5"/>
  <ellipse cx="61.4584" cy="4.81997" rx="4.06985" ry="4.06997" fill="url(#jobjen-dot-gradient)"/>
  <defs>
    <linearGradient id="jobjen-dot-gradient" x1="57.3887" y1="4.81997" x2="65.5282" y2="4.81997" gradientUnits="userSpaceOnUse">
      <stop stop-color="#FF00CC"/>
      <stop offset="1" stop-color="#850CFF"/>
    </linearGradient>
  </defs>
</svg>
